<svg viewBox="0 0 960 540" xmlns="http://www.w3.org/2000/svg" width="960" height="540">
<rect width="960" height="540" fill="#f0f4f8"/>
<rect x="0" y="0" width="960" height="66" fill="#1e293b"/>
<text x="480" y="43" font-size="26" font-weight="bold" text-anchor="middle" fill="white" font-family="system-ui,-apple-system,sans-serif">🎪  Step 4 — Hook onto the straw</text>

<text x="480" y="103" font-size="20" text-anchor="middle" fill="#1e293b" font-weight="normal" font-family="system-ui,-apple-system,sans-serif">Bring BOTH string ends UP and drape them OVER the straw — one on each side</text>

<line x1="60" y1="155" x2="900" y2="155" stroke="#94a3b8" stroke-width="3" stroke-linecap="round"/>
<text x="65" y="143" font-size="16" text-anchor="left" fill="#94a3b8" font-weight="bold" font-family="system-ui,-apple-system,sans-serif">zip line →</text>

<rect x="240" y="143" width="480" height="24" fill="#4ade80" stroke="#1e293b" stroke-width="3" rx="12"/>
<text x="480" y="133" font-size="20" text-anchor="middle" fill="#1e293b" font-weight="bold" font-family="system-ui,-apple-system,sans-serif">STRAW  (zip line pulley)</text>

<polygon points="370,308 590,308 562,493 398,493" fill="#d4956a" stroke="#1e293b" stroke-width="3" stroke-linejoin="round"/>

<line x1="368" y1="312" x2="310" y2="155" stroke="#3b82f6" stroke-width="5" stroke-linecap="round"/>
<line x1="310" y1="155" x2="290" y2="182" stroke="#3b82f6" stroke-width="5" stroke-linecap="round"/>

<line x1="592" y1="312" x2="650" y2="155" stroke="#3b82f6" stroke-width="5" stroke-linecap="round"/>
<line x1="650" y1="155" x2="670" y2="182" stroke="#3b82f6" stroke-width="5" stroke-linecap="round"/>

<circle cx="368" cy="312" r="11" fill="#f0f4f8" stroke="#1e293b" stroke-width="4"/>
<circle cx="592" cy="312" r="11" fill="#f0f4f8" stroke="#1e293b" stroke-width="4"/>

<text x="155" y="218" font-size="18" text-anchor="middle" fill="#1e40af" font-weight="bold" font-family="system-ui,-apple-system,sans-serif">drape over</text>
<text x="155" y="240" font-size="18" text-anchor="middle" fill="#1e40af" font-weight="normal" font-family="system-ui,-apple-system,sans-serif">the straw ↗</text>
<line x1="215" y1="232" x2="295" y2="192" stroke="#1e40af" stroke-width="3" stroke-linecap="round"/><polygon points="295,192 282.9252329215011,208.0996894379985 274.8753882025019,192" fill="#1e40af"/>

<text x="805" y="218" font-size="18" text-anchor="middle" fill="#1e40af" font-weight="bold" font-family="system-ui,-apple-system,sans-serif">↖ drape over</text>
<text x="805" y="240" font-size="18" text-anchor="middle" fill="#1e40af" font-weight="normal" font-family="system-ui,-apple-system,sans-serif">the straw</text>
<line x1="755" y1="232" x2="665" y2="192" stroke="#1e40af" stroke-width="3" stroke-linecap="round"/><polygon points="665,192 685.1038540696456,191.08618845137974 677.7933616806836,207.53479632654435" fill="#1e40af"/>

<rect x="152.11999999999995" y="472" width="655.7600000000001" height="37" fill="#16a34a" stroke="none" stroke-width="0" rx="10"/><text x="480" y="503" font-size="19" text-anchor="middle" fill="white" font-weight="bold" font-family="system-ui,-apple-system,sans-serif">String rests on TOP of the straw — cup hangs straight below</text>
<text x="480" y="530" font-size="18" text-anchor="middle" fill="#475569" font-weight="normal" font-family="system-ui,-apple-system,sans-serif">Like a coat hanger over a rail — gravity holds the cup down.</text>

</svg>